<?xml version="1.0" standalone="no"?>
<!DOCTYPE svg PUBLIC "-//W3C//DTD SVG 20010904//EN"
 "http://www.w3.org/TR/2001/REC-SVG-20010904/DTD/svg10.dtd">
<svg version="1.0" xmlns="http://www.w3.org/2000/svg"
 width="896.000000pt" height="896.000000pt" viewBox="0 0 896.000000 896.000000"
 preserveAspectRatio="xMidYMid meet">
<metadata>
Created by potrace 1.11, written by Peter Selinger 2001-2013
</metadata>
<g transform="translate(0.000000,896.000000) scale(0.100000,-0.100000)"
fill="#000000" stroke="none">
<path d="M4100 8860 c-212 -15 -513 -67 -779 -136 -1071 -277 -2020 -960
-2623 -1889 -345 -531 -560 -1111 -659 -1780 -30 -200 -38 -762 -15 -983 105
-992 518 -1881 1196 -2576 392 -402 820 -714 1285 -936 1148 -549 2477 -595
3660 -125 473 188 955 487 1337 832 136 122 384 383 493 518 553 688 888 1537
946 2402 13 198 5 597 -17 782 -78 675 -314 1331 -680 1887 -366 557 -872
1040 -1439 1376 -166 98 -245 140 -412 217 -449 206 -918 341 -1383 396 -157
18 -731 28 -910 15z m689 -1775 c161 -80 294 -145 295 -145 2 0 226 -110 499
-245 l497 -245 0 -843 0 -843 263 -129 c864 -424 1312 -648 1319 -658 4 -7 8
-384 8 -838 0 -774 -1 -827 -17 -841 -10 -9 -115 -63 -233 -121 -331 -162
-902 -443 -1129 -556 -112 -55 -208 -101 -213 -101 -5 0 -7 370 -6 848 l3 848
-260 129 c-143 70 -375 184 -515 253 -140 68 -373 182 -518 253 -144 71 -267
129 -272 129 -7 0 -10 -300 -10 -839 l0 -839 -102 -50 c-57 -28 -287 -141
-513 -252 -805 -397 -977 -480 -986 -474 -13 8 -12 1671 1 1679 5 3 -77 49
-183 102 -381 189 -698 343 -707 343 -6 0 -10 5 -10 10 0 6 -5 10 -11 10 -6 0
-113 50 -237 112 -125 61 -272 133 -327 159 l-99 48 399 197 c220 108 577 283
793 390 l392 193 68 -34 c37 -18 135 -65 217 -105 83 -40 403 -198 713 -352
310 -153 565 -278 567 -278 3 0 5 379 5 843 l0 842 -58 27 c-116 54 -630 306
-1064 521 l-448 222 393 193 c215 107 437 215 492 242 55 26 233 114 395 194
162 80 298 146 301 146 3 0 137 -65 298 -145z"/>
</g>
</svg>
